# File created by Blade
# Date/Time:  Wed Jan 21 16:14:22 2015
#---------------------------------------------------------
:version 1.10
:name HOM
:units
  mass 1.0
  length 1.000000
  angle deg
:documentation
     Acclaim Skeleton File
:root
   axis xyz
   order TX TY TZ RX RY RZ
   position 0.000000 0.000000 0.000000
   orientation 0 0 0
:bonedata
   begin
      id 1
      name Spine_dum
      direction 0.000000 1.000000 0.000000
      length 7.067664
      axis 0.0 0.0 0.0 xyz
   end
   begin
      id 2
      name LeftUpLeg_dum
      direction 1.000000 0.000000 0.000000
      length 4.013002
      axis 0.0 0.0 0.0 xyz
   end
   begin
      id 3
      name RightUpLeg_dum
      direction -1.000000 0.000000 0.000000
      length 4.013002
      axis 0.0 0.0 0.0 xyz
   end
   begin
      id 4
      name Spine
      direction 0.000000 1.000000 0.000000
      length 0.000000
      axis 0.0 0.0 0.0 xyz
      dof rx ry rz
   end
   begin
      id 5
      name Spine_dum1
      direction 0.000000 1.000000 0.000000
      length 15.039886
      axis 0.0 0.0 0.0 xyz
   end
   begin
      id 6
      name Spine_dum2
      direction 0.000000 1.000000 0.000000
      length 10.530368
      axis 0.0 0.0 0.0 xyz
   end
   begin
      id 7
      name Spine_dum3
      direction 0.000000 1.000000 0.000000
      length 10.530368
      axis 0.0 0.0 0.0 xyz
   end
   begin
      id 8
      name Head
      direction 0.000000 1.000000 0.000000
      length 4.527550
      axis 0.0 0.0 0.0 xyz
      dof rx ry rz
   end
   begin
      id 9
      name LeftShoulder
      direction 1.000000 0.000000 0.000000
      length 7.028855
      axis 0.0 0.0 -90.0 xyz
      dof rx ry rz
   end
   begin
      id 10
      name LeftArm
      direction 1.000000 0.000000 0.000000
      length 10.797705
      axis 0.0 0.0 -90.0 xyz
      dof rx ry rz
   end
   begin
      id 11
      name LeftForeArm
      direction 1.000000 0.000000 0.000000
      length 7.907442
      axis 0.0 0.0 -90.0 xyz
      dof ry rz rx
   end
   begin
      id 12
      name LeftHand
      direction 0.000000 0.000000 0.000000
      length 0.000000
      axis 0.0 0.0 -90.0 xyz
      dof rx ry rz
   end
   begin
      id 13
      name LeftHand_dum1
      direction 0.000000 0.000000 0.000000
      length 0.000000
      axis 0.0 0.0 -90.0 xyz
   end
   begin
      id 14
      name LeftHand_dum2
      direction 1.000000 0.000000 0.000000
      length 3.937000
      axis 0.0 0.0 -90.0 xyz
   end
   begin
      id 15
      name LeftHandThumb1
      direction 0.000000 0.000000 1.000000
      length 3.937000
      axis 0.0 0.0 -90.0 xyz
      dof rx rz ry
   end
   begin
      id 16
      name RightShoulder
      direction -1.000000 0.000000 0.000000
      length 7.028855
      axis 0.0 0.0 90.0 xyz
      dof rx ry rz
   end
   begin
      id 17
      name RightArm
      direction -1.000000 0.000000 0.000000
      length 10.797705
      axis 0.0 0.0 90.0 xyz
      dof rx ry rz
   end
   begin
      id 18
      name RightForeArm
      direction -1.000000 0.000000 0.000000
      length 7.907442
      axis 0.0 0.0 90.0 xyz
      dof ry rz rx
   end
   begin
      id 19
      name RightHand
      direction 0.000000 0.000000 0.000000
      length 0.000000
      axis 0.0 0.0 90.0 xyz
      dof rx ry rz
   end
   begin
      id 20
      name RightHand_dum1
      direction 0.000000 0.000000 0.000000
      length 0.000000
      axis 0.0 0.0 90.0 xyz
   end
   begin
      id 21
      name RightHand_dum2
      direction -1.000000 0.000000 0.000000
      length 3.937000
      axis 0.0 0.0 90.0 xyz
   end
   begin
      id 22
      name RightHandThumb1
      direction 0.000000 0.000000 1.000000
      length 3.937000
      axis 0.0 0.0 90.0 xyz
      dof rx rz ry
   end
   begin
      id 23
      name LeftUpLeg
      direction 0.000000 -1.000000 0.000000
      length 16.899758
      axis 0.0 0.0 0.0 xyz
      dof rx ry rz
   end
   begin
      id 24
      name LeftLeg
      direction 0.000000 -1.000000 0.000000
      length 17.389183
      axis 0.0 0.0 0.0 xyz
      dof rx ry rz
   end
   begin
      id 25
      name LeftFoot
      direction 0.000000 -0.258819 0.965926
      length 4.924528
      axis 15.0 0.0 0.0 xyz
      dof rx ry rz
   end
   begin
      id 26
      name LeftToeBase
      direction 0.000000 0.000000 1.000000
      length 2.952750
      axis 0.0 0.0 0.0 xyz
      dof rx ry rz
   end
   begin
      id 27
      name RightUpLeg
      direction 0.000000 -1.000000 0.000000
      length 16.899758
      axis 0.0 0.0 0.0 xyz
      dof rx ry rz
   end
   begin
      id 28
      name RightLeg
      direction 0.000000 -1.000000 0.000000
      length 17.389183
      axis 0.0 0.0 0.0 xyz
      dof rx ry rz
   end
   begin
      id 29
      name RightFoot
      direction 0.000000 -0.258819 0.965926
      length 4.924528
      axis 15.0 0.0 0.0 xyz
      dof rx ry rz
   end
   begin
      id 30
      name RightToeBase
      direction 0.000000 0.000000 1.000000
      length 2.952750
      axis 0.0 0.0 0.0 xyz
      dof rx ry rz
   end
:hierarchy
   begin
      root Spine_dum LeftUpLeg_dum RightUpLeg_dum
      Spine_dum Spine
      LeftUpLeg_dum LeftUpLeg
      RightUpLeg_dum RightUpLeg
      Spine Spine_dum1 Spine_dum2 Spine_dum3
      Spine_dum1 Head
      Spine_dum2 LeftShoulder
      Spine_dum3 RightShoulder
      LeftShoulder LeftArm
      LeftArm LeftForeArm
      LeftForeArm LeftHand
      LeftHand LeftHand_dum1 LeftHand_dum2
      LeftHand_dum1 LeftHandThumb1
      RightShoulder RightArm
      RightArm RightForeArm
      RightForeArm RightHand
      RightHand RightHand_dum1 RightHand_dum2
      RightHand_dum1 RightHandThumb1
      LeftUpLeg LeftLeg
      LeftLeg LeftFoot
      LeftFoot LeftToeBase
      RightUpLeg RightLeg
      RightLeg RightFoot
      RightFoot RightToeBase
   end

# File created by Blade
# Date/Time:  Wed Jan 21 16:14:13 2015
# Frame Rate: 120.000 fps
#------------------------------------------------------
:FULLY-SPECIFIED
:DEGREES
1
root 18.398344 35.520065 -20.233067 -170.244161 -0.692898 -179.031086
Spine -18.089647 1.007030 0.305378
Head 8.655190 -1.080354 -0.078635
LeftShoulder -11.050549 -33.094051 18.883507
LeftArm -0.188428 6.356272 -10.791186
LeftForeArm 9.770928 -0.000000 -2.413921
LeftHand -7.235679 0.000000 -5.588028
LeftHandThumb1 -26.253704 0.000000 33.147579
RightShoulder -11.252774 -5.826221 -10.706054
RightArm 7.260404 32.820516 14.306718
RightForeArm -35.891072 -0.000000 3.986582
RightHand -5.968017 -0.000000 8.807181
RightHandThumb1 -24.326973 -0.000000 -32.862282
LeftUpLeg -1.618341 9.160979 -0.617752
LeftLeg -5.582854 -0.000000 0.000000
LeftFoot -21.533323 25.976445 -12.402862
LeftToeBase 26.700418 -0.000000 -0.000000
RightUpLeg -3.090201 -5.353765 1.430543
RightLeg -2.699618 -0.000000 0.000000
RightFoot -21.419358 -27.760543 13.124308
RightToeBase 24.163923 -0.000000 -0.000000
2
root 18.397922 35.520328 -20.230218 -170.265064 -0.719793 -179.036118
Spine -18.068015 0.985446 0.309053
Head 8.648174 -1.094721 -0.069966
LeftShoulder -11.037797 -33.081066 18.876930
LeftArm -0.185016 6.343550 -10.798766
LeftForeArm 9.772862 -0.000000 -2.406809
LeftHand -7.232339 -0.000000 -5.576266
LeftHandThumb1 -26.253704 0.000000 33.147579
RightShoulder -11.247951 -5.811746 -10.713343
RightArm 7.268612 32.831423 14.326580
RightForeArm -35.871491 -0.000000 3.976009
RightHand -5.974856 -0.000000 8.795077
RightHandThumb1 -24.326973 -0.000000 -32.862282
LeftUpLeg -1.608120 9.161374 -0.618389
LeftLeg -5.582858 -0.000000 0.000000
LeftFoot -21.520687 25.972022 -12.393721
LeftToeBase 26.493540 -0.000000 -0.000000
RightUpLeg -3.068883 -5.383161 1.427984
RightLeg -2.704067 -0.000000 0.000000
RightFoot -21.423046 -27.766925 13.119787
RightToeBase 24.180412 -0.000000 -0.000000
3
root 18.398422 35.520669 -20.226640 -170.272659 -0.734588 -179.036542
Spine -18.063090 0.986849 0.306713
Head 8.647945 -1.106579 -0.054386
LeftShoulder -11.018296 -33.089451 18.874579
LeftArm -0.175876 6.347656 -10.810676
LeftForeArm 9.775051 -0.000000 -2.410256
LeftHand -7.259368 -0.000000 -5.565753
LeftHandThumb1 -26.253704 0.000000 33.147579
RightShoulder -11.255872 -5.677254 -10.707193
RightArm 7.244351 32.684605 14.273092
RightForeArm -35.843055 -0.000000 3.942770
RightHand -5.908282 0.000000 8.761895
RightHandThumb1 -24.326973 -0.000000 -32.862282
LeftUpLeg -1.612745 9.154168 -0.617594
LeftLeg -5.570695 -0.000000 0.000000
LeftFoot -21.523013 25.950793 -12.396676
LeftToeBase 26.704417 -0.000000 -0.000000
RightUpLeg -3.070818 -5.398914 1.430374
RightLeg -2.694674 -0.000000 0.000000
RightFoot -21.416662 -27.761533 13.093280
RightToeBase 24.227291 -0.000000 -0.000000
4
root 18.398576 35.521608 -20.222731 -170.280491 -0.748929 -179.040137
Spine -18.055968 0.984253 0.311637
Head 8.647720 -1.123215 -0.073265
LeftShoulder -10.992088 -33.081856 18.847655
LeftArm -0.174921 6.365319 -10.807191
LeftForeArm 9.707837 -0.000000 -2.409723
LeftHand -7.245960 0.000000 -5.553061
LeftHandThumb1 -26.253704 0.000000 33.147579
RightShoulder -11.247418 -5.660313 -10.701067
RightArm 7.240846 32.652133 14.262323
RightForeArm -35.828684 -0.000000 3.904051
RightHand -6.094968 -0.000000 8.605647
RightHandThumb1 -24.326973 -0.000000 -32.862282
LeftUpLeg -1.612369 9.134164 -0.617578
LeftLeg -5.571011 -0.000000 0.000000
LeftFoot -21.507470 25.955574 -12.386386
LeftToeBase 26.716862 -0.000000 -0.000000
RightUpLeg -3.070025 -5.394308 1.428112
RightLeg -2.690127 -0.000000 0.000000
RightFoot -21.417590 -27.773371 13.136464
RightToeBase 24.153595 -0.000000 -0.000000
5
root 18.399169 35.522000 -20.219267 -170.287042 -0.760507 -179.038796
Spine -18.047463 0.980108 0.308906
Head 8.625479 -1.139030 -0.045821
LeftShoulder -10.990127 -33.080908 18.867617
LeftArm -0.170664 6.355411 -10.836553
LeftForeArm 9.697105 -0.000000 -2.409482
LeftHand -7.260989 -0.000000 -5.527666
LeftHandThumb1 -26.253704 0.000000 33.147579
RightShoulder -11.254813 -5.657007 -10.701937
RightArm 7.251203 32.661181 14.295866
RightForeArm -35.798101 -0.000000 3.906853
RightHand -5.999711 -0.000000 8.588213
RightHandThumb1 -24.326973 -0.000000 -32.862282
LeftUpLeg -1.615636 9.139357 -0.613337
LeftLeg -5.566462 -0.000000 0.000000
LeftFoot -21.509499 25.930093 -12.401133
LeftToeBase 26.722573 -0.000000 -0.000000
RightUpLeg -3.068025 -5.407237 1.430584
RightLeg -2.689474 -0.000000 0.000000
RightFoot -21.414274 -27.768804 13.114318
RightToeBase 24.217840 -0.000000 -0.000000
6
root 18.399272 35.522640 -20.215041 -170.292172 -0.777362 -179.039330
Spine -18.042931 0.974831 0.308855
Head 8.614094 -1.157469 -0.033690
LeftShoulder -10.970379 -33.069618 18.865075
LeftArm -0.174857 6.323594 -10.852981
LeftForeArm 9.677620 -0.000000 -2.402859
LeftHand -7.259410 -0.000000 -5.521511
LeftHandThumb1 -26.253704 0.000000 33.147579
RightShoulder -11.269713 -5.623243 -10.700804
RightArm 7.273606 32.646481 14.317726
RightForeArm -35.764534 -0.000000 3.889635
RightHand -5.926159 -0.000000 8.614018
RightHandThumb1 -24.326973 -0.000000 -32.862282
LeftUpLeg -1.621029 9.134223 -0.613664
LeftLeg -5.565379 -0.000000 0.000000
LeftFoot -21.488129 25.932127 -12.379781
LeftToeBase 26.692924 -0.000000 -0.000000
RightUpLeg -3.071522 -5.415570 1.432352
RightLeg -2.682311 -0.000000 0.000000
RightFoot -21.410979 -27.775537 13.118627
RightToeBase 24.181219 -0.000000 -0.000000
7
root 18.397751 35.523430 -20.211017 -170.300802 -0.775232 -179.042321
Spine -18.033783 0.973889 0.315777
Head 8.609562 -1.184030 -0.039109
LeftShoulder -10.967950 -33.084792 18.867500
LeftArm -0.188901 6.318091 -10.867427
LeftForeArm 9.662006 -0.000000 -2.404195
LeftHand -7.250140 -0.000000 -5.482677
LeftHandThumb1 -26.253704 0.000000 33.147579
RightShoulder -11.265475 -5.624321 -10.697726
RightArm 7.301703 32.641018 14.332617
RightForeArm -35.719853 0.000000 3.878218
RightHand -6.004641 -0.000000 8.626539
RightHandThumb1 -24.326973 -0.000000 -32.862282
LeftUpLeg -1.628823 9.139110 -0.618014
LeftLeg -5.542866 -0.000000 0.000000
LeftFoot -21.488236 25.916217 -12.376733
LeftToeBase 26.741897 -0.000000 -0.000000
RightUpLeg -3.072740 -5.389515 1.423879
RightLeg -2.676943 -0.000000 0.000000
RightFoot -21.416855 -27.798647 13.135452
RightToeBase 24.226253 -0.000000 -0.000000
